<?xml version="1.0" encoding="iso-8859-1"?>
<!-- Generator: Adobe Illustrator 15.1.0, SVG Export Plug-In . SVG Version: 6.00 Build 0)  -->
<!DOCTYPE svg PUBLIC "-//W3C//DTD SVG 1.1//EN" "http://www.w3.org/Graphics/SVG/1.1/DTD/svg11.dtd">
<svg version="1.1" id="&#x30EC;&#x30A4;&#x30E4;&#x30FC;_1"
	 xmlns="http://www.w3.org/2000/svg" xmlns:xlink="http://www.w3.org/1999/xlink" x="0px" y="0px" width="143.439px"
	 height="202.822px" viewBox="0 0 143.439 202.822" style="enable-background:new 0 0 143.439 202.822;" xml:space="preserve">
<g>
	<rect style="fill:#FFFFFF;" width="143.439" height="164.043"/>
	<rect x="130.381" y="53.115" width="9.736" height="19.102"/>
	<rect x="112.24" y="80.607" width="9.739" height="19.101"/>
	<rect x="94.131" y="57.761" width="45.986" height="9.74"/>
	<rect x="94.131" y="76.408" width="45.986" height="9.734"/>
	<rect x="94.131" y="95.047" width="45.986" height="9.738"/>
	<rect x="94.131" y="113.7" width="38.85" height="9.734"/>
	<rect x="130.618" y="113.7" width="9.499" height="9.734"/>
	<polygon points="114.135,142.075 94.131,150.704 94.131,160.719 140.117,160.719 140.117,150.981 120.117,150.981 140.117,142.356 
		140.117,132.338 94.131,132.336 94.131,142.075 	"/>
	<rect x="42.66" y="57.761" width="45.988" height="9.74"/>
	<rect x="42.66" y="76.408" width="45.988" height="9.734"/>
	<rect x="42.66" y="95.047" width="45.988" height="9.738"/>
	<rect x="42.66" y="132.336" width="45.988" height="9.742"/>
	<rect x="42.66" y="150.985" width="45.988" height="9.738"/>
	<rect x="42.66" y="113.7" width="45.988" height="9.734"/>
	<rect x="3.318" y="150.985" width="27.394" height="9.738"/>
	<rect x="3.318" y="3.326" width="9.74" height="157.397"/>
	<rect x="3.318" y="3.326" width="136.803" height="9.73"/>
	<rect x="130.381" y="3.326" width="9.736" height="37.839"/>
</g>
<g>
	<path d="M5.68,197.802c1.284,0,1.725,0.699,1.725,2.508s-0.44,2.512-1.725,2.512c-1.287,0-1.727-0.703-1.727-2.512
		S4.393,197.802,5.68,197.802z M5.68,201.968c0.383,0,0.424-0.352,0.424-1.658s-0.041-1.656-0.424-1.656
		c-0.387,0-0.428,0.35-0.428,1.656S5.293,201.968,5.68,201.968z"/>
	<path d="M8.244,197.896h1.889c0.961,0,1.394,0.643,1.394,1.488c0,0.988-0.562,1.5-1.584,1.5h-0.44v1.844H8.244V197.896z
		 M9.502,199.978h0.237c0.319,0,0.488-0.18,0.488-0.588c0-0.4-0.169-0.59-0.488-0.59H9.502V199.978z"/>
	<path d="M12.313,197.896h2.86v1.027h-1.602v0.824h1.5v0.988h-1.5v0.961h1.662v1.031h-2.921V197.896z"/>
	<path d="M16.108,197.896h1.409l0.811,2.977h0.014v-2.977h1.178v4.832h-1.381l-0.838-2.988h-0.015v2.988h-1.178V197.896z"/>
	<path d="M24.624,199.289v-0.115c0-0.285-0.114-0.52-0.358-0.52c-0.271,0-0.392,0.209-0.392,0.426c0,0.953,2.058,0.484,2.058,2.254
		c0,1.027-0.602,1.488-1.714,1.488c-1.04,0-1.623-0.359-1.623-1.361v-0.17h1.219v0.117c0,0.412,0.169,0.561,0.411,0.561
		c0.259,0,0.406-0.203,0.406-0.467c0-0.955-1.976-0.48-1.976-2.191c0-0.977,0.522-1.508,1.584-1.508
		c1.096,0,1.564,0.451,1.564,1.486H24.624z"/>
	<path d="M28.378,197.802c1.284,0,1.726,0.699,1.726,2.508s-0.441,2.512-1.726,2.512c-1.286,0-1.727-0.703-1.727-2.512
		S27.092,197.802,28.378,197.802z M28.378,201.968c0.387,0,0.426-0.352,0.426-1.658s-0.039-1.656-0.426-1.656
		c-0.385,0-0.426,0.35-0.426,1.656S27.993,201.968,28.378,201.968z"/>
	<path d="M32.188,197.896v3.484c0,0.467,0.143,0.588,0.38,0.588c0.238,0,0.379-0.121,0.379-0.588v-3.484h1.258v3.164
		c0,1.355-0.581,1.762-1.637,1.762c-1.057,0-1.638-0.406-1.638-1.762v-3.164H32.188z"/>
	<path d="M35.167,197.896h1.969c0.962,0,1.327,0.539,1.327,1.285c0,0.641-0.251,1.061-0.826,1.148v0.014
		c0.609,0.057,0.793,0.439,0.793,1.084v0.414c0,0.25,0,0.574,0.061,0.668c0.033,0.055,0.061,0.109,0.142,0.148v0.07h-1.341
		c-0.121-0.26-0.121-0.719-0.121-0.922v-0.324c0-0.549-0.107-0.691-0.414-0.691h-0.331v1.938h-1.258V197.896z M36.425,199.937h0.251
		c0.358,0,0.527-0.229,0.527-0.576c0-0.391-0.154-0.561-0.534-0.561h-0.244V199.937z"/>
	<path d="M41.338,199.361c0-0.547-0.1-0.707-0.342-0.707c-0.387,0-0.428,0.35-0.428,1.656s0.041,1.658,0.428,1.658
		c0.311,0,0.378-0.271,0.378-1.186h1.219v0.359c0,1.355-0.791,1.68-1.597,1.68c-1.414,0-1.727-0.711-1.727-2.512
		c0-1.848,0.419-2.508,1.727-2.508c1.135,0,1.561,0.594,1.561,1.527v0.303h-1.219V199.361z"/>
	<path d="M43.447,197.896h2.863v1.027h-1.605v0.824h1.504v0.988h-1.504v0.961h1.666v1.031h-2.924V197.896z"/>
	<path d="M49.459,197.896h1.968c0.961,0,1.327,0.539,1.327,1.285c0,0.641-0.251,1.061-0.826,1.148v0.014
		c0.609,0.057,0.793,0.439,0.793,1.084v0.414c0,0.25,0,0.574,0.061,0.668c0.033,0.055,0.061,0.109,0.143,0.148v0.07h-1.342
		c-0.121-0.26-0.121-0.719-0.121-0.922v-0.324c0-0.549-0.108-0.691-0.413-0.691h-0.331v1.938h-1.258V197.896z M50.717,199.937h0.252
		c0.357,0,0.527-0.229,0.527-0.576c0-0.391-0.156-0.561-0.535-0.561h-0.244V199.937z"/>
	<path d="M53.719,197.896h2.862v1.027h-1.604v0.824h1.502v0.988h-1.502v0.961h1.664v1.031h-2.923V197.896z"/>
	<path d="M57.495,197.896h1.887c0.962,0,1.394,0.643,1.394,1.488c0,0.988-0.561,1.5-1.582,1.5h-0.44v1.844h-1.258V197.896z
		 M58.753,199.978h0.237c0.316,0,0.486-0.18,0.486-0.588c0-0.4-0.17-0.59-0.486-0.59h-0.237V199.978z"/>
	<path d="M63.205,197.802c1.286,0,1.725,0.699,1.725,2.508s-0.438,2.512-1.725,2.512c-1.285,0-1.725-0.703-1.725-2.512
		S61.92,197.802,63.205,197.802z M63.205,201.968c0.385,0,0.426-0.352,0.426-1.658s-0.041-1.656-0.426-1.656
		s-0.426,0.35-0.426,1.656S62.82,201.968,63.205,201.968z"/>
	<path d="M65.795,197.896h1.969c0.962,0,1.327,0.539,1.327,1.285c0,0.641-0.249,1.061-0.823,1.148v0.014
		c0.605,0.057,0.789,0.439,0.789,1.084v0.414c0,0.25,0,0.574,0.061,0.668c0.034,0.055,0.061,0.109,0.143,0.148v0.07h-1.341
		c-0.12-0.26-0.12-0.719-0.12-0.922v-0.324c0-0.549-0.108-0.691-0.414-0.691h-0.328v1.938h-1.262V197.896z M67.057,199.937h0.249
		c0.356,0,0.525-0.229,0.525-0.576c0-0.391-0.154-0.561-0.534-0.561h-0.24V199.937z"/>
	<path d="M70.766,198.964h-0.947v-1.068h3.152v1.068h-0.947v3.764h-1.258V198.964z"/>
	<path d="M73.675,197.896h1.26v4.832h-1.26V197.896z"/>
	<path d="M75.895,197.896h1.407l0.813,2.977h0.015v-2.977h1.178v4.832h-1.381l-0.84-2.988h-0.014v2.988h-1.178V197.896z"/>
	<path d="M81.922,200.101h1.625v2.627h-0.854l-0.027-0.43h-0.014c-0.168,0.414-0.615,0.523-1.041,0.523
		c-1.279,0-1.395-0.914-1.395-2.512c0-1.617,0.312-2.508,1.801-2.508c0.893,0,1.529,0.451,1.529,1.621h-1.219
		c0-0.242-0.02-0.434-0.068-0.561c-0.046-0.139-0.143-0.209-0.29-0.209c-0.413,0-0.454,0.35-0.454,1.656s0.041,1.658,0.428,1.658
		c0.264,0,0.418-0.17,0.426-1.016h-0.447V200.101z"/>
	<path d="M88.57,199.289v-0.115c0-0.285-0.116-0.52-0.36-0.52c-0.271,0-0.392,0.209-0.392,0.426c0,0.953,2.056,0.484,2.056,2.254
		c0,1.027-0.601,1.488-1.71,1.488c-1.042,0-1.623-0.359-1.623-1.361v-0.17h1.217v0.117c0,0.412,0.169,0.561,0.413,0.561
		c0.257,0,0.406-0.203,0.406-0.467c0-0.955-1.978-0.48-1.978-2.191c0-0.977,0.522-1.508,1.584-1.508
		c1.098,0,1.564,0.451,1.564,1.486H88.57z"/>
	<path d="M92.322,197.802c1.286,0,1.725,0.699,1.725,2.508s-0.438,2.512-1.725,2.512s-1.727-0.703-1.727-2.512
		S91.036,197.802,92.322,197.802z M92.322,201.968c0.385,0,0.428-0.352,0.428-1.658s-0.043-1.656-0.428-1.656
		c-0.387,0-0.428,0.35-0.428,1.656S91.936,201.968,92.322,201.968z"/>
	<path d="M94.912,197.896h1.26v3.801h1.549v1.031h-2.809V197.896z"/>
	<path d="M99.686,197.896v3.484c0,0.467,0.143,0.588,0.379,0.588c0.237,0,0.378-0.121,0.378-0.588v-3.484h1.258v3.164
		c0,1.355-0.581,1.762-1.636,1.762c-1.059,0-1.639-0.406-1.639-1.762v-3.164H99.686z"/>
	<path d="M103.352,198.964h-0.946v-1.068h3.153v1.068h-0.945v3.764h-1.262V198.964z"/>
	<path d="M106.263,197.896h1.259v4.832h-1.259V197.896z"/>
	<path d="M110.088,197.802c1.284,0,1.725,0.699,1.725,2.508s-0.44,2.512-1.725,2.512c-1.287,0-1.729-0.703-1.729-2.512
		S108.801,197.802,110.088,197.802z M110.088,201.968c0.385,0,0.424-0.352,0.424-1.658s-0.039-1.656-0.424-1.656
		c-0.387,0-0.428,0.35-0.428,1.656S109.701,201.968,110.088,201.968z"/>
	<path d="M112.678,197.896h1.407l0.813,2.977h0.013v-2.977h1.176v4.832h-1.379l-0.839-2.988h-0.015v2.988h-1.176V197.896z"/>
</g>
<path d="M141.501,180.657v-2.941l-1.833-1.938h-6.782l-1.833,1.938v6.951l1.833,1.936h4.651l0.672,0.707v2.631l-0.672,0.705h-2.52
	l-0.673-0.705v-0.779h-3.292v2.941l1.833,1.937h6.782l1.833-1.937v-6.953l-1.833-1.938h-4.65l-0.673-0.703v-2.633l0.673-0.705h2.52
	l0.672,0.705v0.781H141.501z M45.625,186.219l-3.931-10.418l-3.228-0.031v18.259h3.292v-10.423l3.93,10.423h3.225V175.77h-3.288
	V186.219z M31.886,194.029h3.292V175.77h-3.292V194.029z M3.479,175.848h4.538v18.181h3.936v-18.181h4.537v-4.053H3.479V175.848z
	 M95.178,175.77l-1.833,1.938v14.383l1.833,1.938h6.666l1.949-1.935v-14.387l-1.829-1.938H95.178z M100.503,189.93l-0.674,0.707
	h-2.519l-0.674-0.707v-10.063l0.674-0.707h2.519l0.674,0.707V189.93z M25.372,183.204H21.51v-7.434h-3.292v18.259h3.292v-7.435
	h3.862v7.435h3.296V175.77h-3.296V183.204z M80.692,175.77v18.259h3.294v-7.435h5.204l1.952-1.934v-7.355l-1.846-1.535H80.692z
	 M87.851,182.497l-0.674,0.707h-3.19v-4.043h3.19l0.674,0.707V182.497z M116.961,184.661v-6.953l-1.834-1.938h-8.617v18.259h3.295
	v-7.435h1.765l1.886,7.435h3.563l-1.863-7.577L116.961,184.661z M113.668,182.497l-0.672,0.707h-3.191v-4.043h3.191l0.672,0.707
	V182.497z M67.5,194.029h10.449v-3.392h-7.158v-4.043h6.014v-3.391h-6.014v-4.043h7.158v-3.391H67.5V194.029z M118.81,179.161h3.579
	v14.868h3.294v-14.868h3.577v-3.391h-10.45V179.161z M64.658,182.731v-8.723l-2.084-2.213H52.172v22.233h3.932v-9.091h2.174
	l2.175,9.091h4.262l-2.144-9.231L64.658,182.731z M60.725,180.293l-0.549,0.59h-4.072v-5.037h4.072l0.549,0.592V180.293z"/>
</svg>
